# xmcd
#
# Track frame offsets: 
#        150
#        13212
#        30021
#        48030
#        62447
#        77932
#        89868
#        117994
#        126595
#        132713
#        144883
#        155246
#        177401
#        189595
#
# Disc length: 2668 seconds
#
# Revision: 0
# Processed by: cddbd v1.5PL3 Copyright (c) Steve Scherf et al.
# Submitted via: ExactAudioCopy v0.95a4
#
DISCID=c70a6a0e
DTITLE=Laimas muzykanti - Gonam gona
DYEAR=2002
DGENRE=Country
TTITLE0=Tautu meita
TTITLE1=Latgolas dancs
TTITLE2=Sudrabota saule leca
TTITLE3=Toli dzeivoj
TTITLE4=Isalaizu dzismeites
TTITLE5=Meitu mote
TTITLE6=Kur gaismena
TTITLE7=Spuza saule
TTITLE8=Pi ezara
TTITLE9=Lanckarons
TTITLE10=Ai, galdeni
TTITLE11=Dzarojens
TTITLE12=Sasukoju baru zyrgu
TTITLE13=Kaladu
EXTD=
EXTT0=
EXTT1=
EXTT2=
EXTT3=
EXTT4=
EXTT5=
EXTT6=
EXTT7=
EXTT8=
EXTT9=
EXTT10=
EXTT11=
EXTT12=
EXTT13=
PLAYORDER=
